# xmcd
#
# Track frame offsets:
#	150
#	16837
#	29057
#	48935
#	63742
#	76831
#	96468
#	104617
#	123043
#	138822
#	169230
#	181201
#	193133
#	207669
#	227315
#	253886
#	273851
#	292727
#	317299
#	338224
#
# Disc length: 4729
#
# Revision: 1
# Processed by: cddbd v1.5.1PL0 Copyright (c) Steve Scherf et al.
# Submitted via: CDex 1.50beta10
# Normalized: r0:DSETVAR1,TDELIM( - )
#
DISCID=19127714
DTITLE=Various Artist - 60 Blues Guitar Greats Disc 3
DYEAR=2002
DGENRE=Blues
TTITLE0=Peter Green - Do You Give A Damn For Me
TTITLE1=Lowell Fulson and Steve Cropper - Something's Wrong
TTITLE2=Otis Grand - Six Ways (Pam's Tune)
TTITLE3=Billy Boy Arnold and Tony McPhee - Don't Stay Out All Night Long
TTITLE4=Bobo Thomas - Catfish Blues
TTITLE5=Homesick James - Highway 61
TTITLE6=T-Bone Walker - Futher On Up The Road
TTITLE7=Earl Hooker - Off The Hook
TTITLE8=Eddie 'Playboy' Taylor - Ready For Eddie
TTITLE9=Jimmy Reed and Johnny Winter - Bright Lights Big City
TTITLE10=All Stars and Jeff Beck - Stealin'
TTITLE11=Luther Huff - 1951 Blues
TTITLE12=Bernie Marsden Band - Shake Your Moneymaker
TTITLE13=Brian Knight and John McLaughlin - Good Time Down The Road
TTITLE14=Fred McDowell - 61 Highway
TTITLE15=Joe Carter - Joe's Boogie
TTITLE16=Savoy Brown and Kim Simmonds - The Saddest Feeling
TTITLE17=Byther Smith - Hold That Train
TTITLE18=Mighty Joe Young - Why Do You Want To Hurt Me
TTITLE19=U.P. Willson - Johnny B. Goode
EXTD=YEAR: 2002
EXTT0=
EXTT1=
EXTT2=
EXTT3=
EXTT4=
EXTT5=
EXTT6=
EXTT7=
EXTT8=
EXTT9=
EXTT10=
EXTT11=
EXTT12=
EXTT13=
EXTT14=
EXTT15=
EXTT16=
EXTT17=
EXTT18=
EXTT19=
PLAYORDER=
